<?xml version="1.0" encoding="UTF-8" standalone="no"?>
<!-- Created with Inkscape (http://www.inkscape.org/) -->

<svg
   width="529.16669mm"
   height="529.16669mm"
   viewBox="0 0 529.16669 529.16669"
   version="1.1"
   id="svg80501"
   xmlns="http://www.w3.org/2000/svg"
   xmlns:svg="http://www.w3.org/2000/svg">
  <defs
     id="defs80498" />
  <g
     id="layer1"
     transform="translate(166.06982,175.92117)">
    <path
       d="m 98.51351,353.24549 c 146.62414,0 264.58333,-117.95919 264.58333,-264.58333 0,-146.624144 -117.95919,-264.58333 -264.58333,-264.58333 -146.624144,0 -264.58333,117.959186 -264.58333,264.58333 0,146.62414 117.959186,264.58333 264.58333,264.58333 z"
       fill="#2775ca"
       id="path2"
       style="fill:#d42e1e;fill-opacity:1;stroke-width:0.264583" />
    <path
       d="m 171.27393,130.55364 c 0,-38.584188 -23.15105,-51.813355 -69.45313,-57.324626 C 68.747885,68.81841 62.133302,59.999848 62.133302,44.564056 c 0,-15.435791 11.025187,-25.35502 33.072916,-25.35502 19.843752,0 30.868942,6.614583 36.380212,23.151041 1.10331,3.307292 4.4106,5.511271 7.71789,5.511271 h 17.63713 c 4.4106,0 7.71789,-3.307292 7.71789,-7.71525 V 39.052786 C 160.24874,14.798432 140.40499,-3.9420055 115.04997,-6.1459846 V -32.604318 c 0,-4.410604 -3.30729,-7.717895 -8.81856,-8.821208 H 89.694948 c -4.410604,0 -7.717896,3.307292 -8.821209,8.821208 V -7.2492971 C 47.800823,-2.838693 26.856407,19.209036 26.856407,46.770681 c 0,36.380208 22.047729,50.710041 68.349811,56.223959 30.868942,5.51127 40.790812,12.12585 40.790812,29.76562 0,17.63977 -15.43579,29.76563 -36.380208,29.76563 -28.664957,0 -38.586832,-12.1285 -41.894124,-28.66496 -1.100667,-4.40796 -4.407958,-6.61458 -7.71525,-6.61458 H 31.264365 c -4.407958,0 -7.71525,3.30729 -7.71525,7.71789 v 1.10332 c 4.407958,27.55899 22.047729,47.40274 58.427937,52.91666 v 26.45833 c 0,4.40796 3.307292,7.71525 8.818562,8.81857 h 16.536456 c 4.41061,0 7.7179,-3.30729 8.82121,-8.81857 v -26.45833 c 33.07292,-5.51392 55.12065,-28.66496 55.12065,-58.43058 z"
       fill="#fff"
       id="path4"
       style="fill:#1fae4a;fill-opacity:1;stroke-width:0.264583" />
    <path
       d="M 42.289552,246.30885 C -43.70003,215.44255 -87.798133,119.5311 -55.825884,34.642182 c 16.536458,-46.302083 52.9166661,-81.578979 98.115436,-98.115437 4.410604,-2.203979 6.614584,-5.511271 6.614584,-11.025187 v -15.433146 c 0,-4.410604 -2.20398,-7.717895 -6.614584,-8.818562 -1.103312,0 -3.307291,0 -4.410604,1.100667 C -66.851071,-64.576567 -124.17834,46.770681 -91.105425,151.5007 c 19.84375,61.73523 67.249145,109.14062 128.984373,128.98437 4.410604,2.20398 8.821208,0 9.921875,-4.4106 1.103313,-1.10067 1.103313,-2.20398 1.103313,-4.40796 v -15.43579 c 0,-3.30729 -3.307292,-7.71525 -6.614584,-9.92187 z M 159.14807,-97.649483 c -4.4106,-2.20398 -8.82121,0 -9.92187,4.410604 -1.10332,1.103312 -1.10332,2.203979 -1.10332,4.410604 v 15.433145 c 0,4.410604 3.3073,8.818563 6.61459,11.025188 85.98958,30.866291 130.08768,126.777748 98.11543,211.666662 -16.53645,46.30208 -52.91666,81.57898 -98.11543,98.11544 -4.41061,2.20398 -6.61459,5.51127 -6.61459,11.02519 v 15.43314 c 0,4.41061 2.20398,7.7179 6.61459,8.81856 1.10331,0 3.30729,0 4.4106,-1.10066 C 263.87809,248.51547 321.20536,137.16822 288.13245,32.438202 268.2887,-30.400339 219.77999,-77.805734 159.14807,-97.649483 Z"
       fill="#fff"
       id="path6"
       style="fill:#1fae4a;fill-opacity:1;stroke-width:0.264583" />
  </g>
</svg>
